<svg xmlns="http://www.w3.org/2000/svg" viewBox="0 0 48 48"><path fill="#ea4867" d="M5.756,23.088q.252.457.537.912c3.381,5.406,17.59,20.489,17.59,20.489S37.566,30.2,41.414,24.452l1.233-2.132c4.585-9.256-.19-18.809-7.912-18.809A11.337,11.337,0,0,0,24,10.221a11.337,11.337,0,0,0-10.735-6.71C6,3.511,1.347,11.959,4.632,20.664Z" data-name="color copy"/><path fill="#1a1a1a" d="M47.25,21.57H43.809c2.005-4.8,1.8-10.033-.6-13.9a9.893,9.893,0,0,0-8.478-4.906A12.177,12.177,0,0,0,24,8.612,12.177,12.177,0,0,0,13.266,2.761,9.866,9.866,0,0,0,5.108,7.179c-2.579,3.73-3.019,8.87-1.178,13.75a.75.75,0,0,0,1.4-.53C3.666,15.98,4.043,11.357,6.342,8.032a8.278,8.278,0,0,1,6.924-3.771A10.516,10.516,0,0,1,23.3,10.489a.781.781,0,0,0,1.4,0A10.516,10.516,0,0,1,34.734,4.261a8.423,8.423,0,0,1,7.2,4.2c2.243,3.615,2.3,8.6.216,13.112H39.064a.754.754,0,0,0-.606.308l-.555.762-1.278-4.715a.749.749,0,0,0-.7-.553H35.9a.751.751,0,0,0-.711.511l-2.176,6.479-1.644-10.8a.75.75,0,0,0-1.461-.1L27.537,21.57H24.369a.749.749,0,0,0-.726.565l-.432,1.7-2.139-6.311a.75.75,0,0,0-.691-.509.742.742,0,0,0-.717.475l-3.444,8.74-2-16.989a.75.75,0,0,0-1.476-.081L9.732,22.173H.75a.75.75,0,0,0,0,1.5H5.23c.138.242.276.484.427.725C9.039,29.8,22.755,44.385,23.337,45a.749.749,0,0,0,.543.236h0a.751.751,0,0,0,.542-.231c.56-.586,13.771-14.4,17.612-20.138a.75.75,0,1,0-1.246-.835c-3.334,4.978-14.32,16.64-16.9,19.362C21.272,40.6,9.972,28.407,6.976,23.673h3.353a.75.75,0,0,0,.731-.581L13.23,13.7l1.849,15.668a.752.752,0,0,0,.649.656.785.785,0,0,0,.1.006.747.747,0,0,0,.7-.475l3.789-9.608L22.6,26.72a.75.75,0,0,0,1.437-.056l.912-3.594H28.1a.749.749,0,0,0,.719-.539L30.4,17.138,32,27.649a.75.75,0,0,0,1.452.126l2.375-7.07,1.041,3.837a.75.75,0,0,0,1.33.245l1.251-1.717h7.8a.75.75,0,0,0,0-1.5Z" data-name="line expand"/></svg>